<svg xmlns="http://www.w3.org/2000/svg" viewBox="0 0 420 120" role="img" aria-labelledby="title desc">
  <title id="title">Mistvale logo</title>
  <desc id="desc">A tea leaf and hill mark with the Mistvale wordmark.</desc>
  <rect width="420" height="120" fill="#f6f1e7"/>
  <g transform="translate(18 16)">
    <circle cx="38" cy="44" r="34" fill="#1f3d2b" opacity="0.08"/>
    <path d="M38 12c14 18 22 28 28 42 5 13 3 24-10 35-15 13-34 12-46 0-12-12-13-23-5-37C14 39 24 27 38 12Z" fill="#1f3d2b"/>
    <path d="M23 42c8-8 14-15 18-29 4 14 12 22 25 31-11 1-24 7-30 18-6-8-11-14-13-20Z" fill="#f6f1e7" opacity="0.8"/>
    <path d="M14 64c17-8 31-8 46 0" fill="none" stroke="#4f7942" stroke-width="4" stroke-linecap="round"/>
  </g>
  <g transform="translate(96 22)">
    <text x="0" y="44" font-family="Georgia, 'Times New Roman', serif" font-size="42" font-weight="600" fill="#1f3d2b">Mistvale</text>
    <text x="2" y="72" font-family="Arial, sans-serif" font-size="18" letter-spacing="2.5" fill="#4f7942">HILL-GROWN TEA</text>
  </g>
</svg>
